<mxfile host="Electron" modified="2024-07-26T04:40:42.137Z" agent="Mozilla/5.0 (X11; Linux x86_64) AppleWebKit/537.36 (KHTML, like Gecko) draw.io/24.6.4 Chrome/124.0.6367.207 Electron/30.0.6 Safari/537.36" etag="4U9Gw4m9HTXQPjiYIFr4" version="24.6.4" type="device">
  <diagram name="Page-1" id="siXNna9_pF9Z7vIk-0mN">
    <mxGraphModel dx="1247" dy="729" grid="1" gridSize="10" guides="1" tooltips="1" connect="1" arrows="1" fold="1" page="1" pageScale="1" pageWidth="850" pageHeight="1100" math="0" shadow="0">
      <root>
        <mxCell id="0" />
        <mxCell id="1" parent="0" />
        <mxCell id="7Etn7J5GAcvlB-kk5nT8-5" value="&amp;lt;html&amp;gt;" style="rounded=1;whiteSpace=wrap;html=1;fontFamily=Times New Roman;fontStyle=1;fontSize=22;" parent="1" vertex="1">
          <mxGeometry x="80" y="160" width="90" height="40" as="geometry" />
        </mxCell>
        <mxCell id="7Etn7J5GAcvlB-kk5nT8-7" value="&amp;lt;body&amp;gt;" style="rounded=1;whiteSpace=wrap;html=1;fontFamily=Times New Roman;fontStyle=1;fontSize=22;" parent="1" vertex="1">
          <mxGeometry x="90" y="200" width="90" height="40" as="geometry" />
        </mxCell>
        <mxCell id="7Etn7J5GAcvlB-kk5nT8-6" value="&amp;lt;/html&amp;gt;" style="rounded=1;whiteSpace=wrap;html=1;fontFamily=Times New Roman;fontStyle=1;fontSize=22;" parent="1" vertex="1">
          <mxGeometry x="80" y="680" width="90" height="40" as="geometry" />
        </mxCell>
        <mxCell id="7Etn7J5GAcvlB-kk5nT8-8" value="&amp;lt;/body&amp;gt;" style="rounded=1;whiteSpace=wrap;html=1;fontFamily=Times New Roman;fontStyle=1;fontSize=22;" parent="1" vertex="1">
          <mxGeometry x="90" y="640" width="90" height="40" as="geometry" />
        </mxCell>
        <mxCell id="7Etn7J5GAcvlB-kk5nT8-9" value="&amp;lt;div class=&quot;job-item&quot;&amp;gt;" style="rounded=1;whiteSpace=wrap;html=1;fontFamily=Times New Roman;fontStyle=1;fontSize=22;align=left;fillColor=#1ba1e2;fontColor=#ffffff;strokeColor=#006EAF;" parent="1" vertex="1">
          <mxGeometry x="100" y="240" width="230" height="40" as="geometry" />
        </mxCell>
        <mxCell id="7Etn7J5GAcvlB-kk5nT8-22" value="&amp;lt;/div&amp;gt;" style="rounded=1;whiteSpace=wrap;html=1;fontFamily=Times New Roman;fontStyle=1;fontSize=22;align=left;fillColor=#1ba1e2;fontColor=#ffffff;strokeColor=#006EAF;" parent="1" vertex="1">
          <mxGeometry x="100" y="400" width="70" height="40" as="geometry" />
        </mxCell>
        <mxCell id="7Etn7J5GAcvlB-kk5nT8-23" value="&amp;lt;a href=&quot;https://www.mylink/joblist/1&quot;&amp;gt;" style="rounded=1;whiteSpace=wrap;html=1;fontFamily=Times New Roman;fontStyle=1;fontSize=22;fillColor=#1ba1e2;fontColor=#ffffff;strokeColor=#006EAF;" parent="1" vertex="1">
          <mxGeometry x="110" y="280" width="390" height="40" as="geometry" />
        </mxCell>
        <mxCell id="7Etn7J5GAcvlB-kk5nT8-24" value="&amp;lt;/a&amp;gt;" style="rounded=1;whiteSpace=wrap;html=1;fontFamily=Times New Roman;fontStyle=1;fontSize=22;fillColor=#1ba1e2;fontColor=#ffffff;strokeColor=#006EAF;" parent="1" vertex="1">
          <mxGeometry x="110" y="360" width="50" height="40" as="geometry" />
        </mxCell>
        <mxCell id="7Etn7J5GAcvlB-kk5nT8-25" value="&amp;lt;i class=&quot;far fa-calendar&quot;&amp;gt;&amp;lt;/i&amp;gt; 24 de&amp;nbsp; julio" style="rounded=1;whiteSpace=wrap;html=1;fontFamily=Times New Roman;fontStyle=1;fontSize=22;fillColor=#1ba1e2;fontColor=#ffffff;strokeColor=#006EAF;" parent="1" vertex="1">
          <mxGeometry x="130" y="320" width="460" height="40" as="geometry" />
        </mxCell>
        <mxCell id="7Etn7J5GAcvlB-kk5nT8-29" value="&amp;lt;div class=&quot;job-item&quot;&amp;gt;" style="rounded=1;whiteSpace=wrap;html=1;fontFamily=Times New Roman;fontStyle=1;fontSize=22;align=left;fillColor=#1ba1e2;fontColor=#ffffff;strokeColor=#006EAF;" parent="1" vertex="1">
          <mxGeometry x="100" y="440" width="230" height="40" as="geometry" />
        </mxCell>
        <mxCell id="7Etn7J5GAcvlB-kk5nT8-30" value="&amp;lt;/div&amp;gt;" style="rounded=1;whiteSpace=wrap;html=1;fontFamily=Times New Roman;fontStyle=1;fontSize=22;align=left;fillColor=#1ba1e2;fontColor=#ffffff;strokeColor=#006EAF;" parent="1" vertex="1">
          <mxGeometry x="100" y="600" width="70" height="40" as="geometry" />
        </mxCell>
        <mxCell id="7Etn7J5GAcvlB-kk5nT8-31" value="&amp;lt;a href=&quot;https://www.mylink/joblist/2&quot;&amp;gt;" style="rounded=1;fontFamily=Times New Roman;fontStyle=1;fontSize=22;fillColor=#1ba1e2;fontColor=#ffffff;strokeColor=#006EAF;html=1;whiteSpace=wrap;" parent="1" vertex="1">
          <mxGeometry x="110" y="480" width="390" height="40" as="geometry" />
        </mxCell>
        <mxCell id="7Etn7J5GAcvlB-kk5nT8-32" value="&amp;lt;/a&amp;gt;" style="rounded=1;whiteSpace=wrap;html=1;fontFamily=Times New Roman;fontStyle=1;fontSize=22;fillColor=#1ba1e2;fontColor=#ffffff;strokeColor=#006EAF;" parent="1" vertex="1">
          <mxGeometry x="110" y="560" width="50" height="40" as="geometry" />
        </mxCell>
        <mxCell id="7Etn7J5GAcvlB-kk5nT8-33" value="&amp;lt;i class=&quot;far fa-calendar&quot;&amp;gt;&amp;lt;/i&amp;gt; 17 de&amp;nbsp; julio" style="rounded=1;whiteSpace=wrap;html=1;fontFamily=Times New Roman;fontStyle=1;fontSize=22;fillColor=#1ba1e2;fontColor=#ffffff;strokeColor=#006EAF;" parent="1" vertex="1">
          <mxGeometry x="130" y="520" width="460" height="40" as="geometry" />
        </mxCell>
        <mxCell id="7Etn7J5GAcvlB-kk5nT8-36" value="" style="group" parent="1" vertex="1" connectable="0">
          <mxGeometry x="1400" y="500" width="265" height="130" as="geometry" />
        </mxCell>
        <mxCell id="7Etn7J5GAcvlB-kk5nT8-34" value="&lt;font color=&quot;#ffff66&quot;&gt;string&amp;nbsp;&lt;/font&gt;GetHTML()" style="text;html=1;align=center;verticalAlign=middle;resizable=0;points=[];autosize=1;strokeColor=none;fillColor=none;fontColor=#99FFCC;fontStyle=1;fontFamily=Times New Roman;fontSize=32;" parent="7Etn7J5GAcvlB-kk5nT8-36" vertex="1">
          <mxGeometry x="5" width="260" height="50" as="geometry" />
        </mxCell>
        <mxCell id="7Etn7J5GAcvlB-kk5nT8-35" value="Esta función va a tener todos los nodos &amp;lt;div&amp;gt; con la clase &quot;job-item&quot; y las va a encerrar en un &amp;lt;root&amp;gt;&amp;lt;/root&amp;gt;" style="rounded=1;whiteSpace=wrap;html=1;fontFamily=Times New Roman;fontSize=15;fontStyle=1" parent="7Etn7J5GAcvlB-kk5nT8-36" vertex="1">
          <mxGeometry y="50" width="255" height="80" as="geometry" />
        </mxCell>
        <mxCell id="7Etn7J5GAcvlB-kk5nT8-41" value="" style="group;fillColor=#000000;" parent="1" vertex="1" connectable="0">
          <mxGeometry x="1720" y="480" width="255" height="140" as="geometry" />
        </mxCell>
        <mxCell id="7Etn7J5GAcvlB-kk5nT8-38" value="public class Job()" style="text;html=1;align=center;verticalAlign=middle;resizable=0;points=[];autosize=1;strokeColor=none;fillColor=none;fontColor=#FFFF66;fontStyle=1;fontFamily=Times New Roman;fontSize=32;container=0;" parent="7Etn7J5GAcvlB-kk5nT8-41" vertex="1">
          <mxGeometry width="250" height="50" as="geometry" />
        </mxCell>
        <mxCell id="7Etn7J5GAcvlB-kk5nT8-39" value="string UrlLink {get;set;}" style="rounded=1;whiteSpace=wrap;html=1;fontFamily=Times New Roman;fontSize=19;fontStyle=1;container=0;" parent="7Etn7J5GAcvlB-kk5nT8-41" vertex="1">
          <mxGeometry y="50" width="210" height="40" as="geometry" />
        </mxCell>
        <mxCell id="7Etn7J5GAcvlB-kk5nT8-40" value="DATE CalendarDate {get;set;}" style="rounded=1;whiteSpace=wrap;html=1;fontFamily=Times New Roman;fontSize=19;fontStyle=1;container=0;" parent="7Etn7J5GAcvlB-kk5nT8-41" vertex="1">
          <mxGeometry y="100" width="255" height="40" as="geometry" />
        </mxCell>
        <mxCell id="7Etn7J5GAcvlB-kk5nT8-49" value="" style="group" parent="1" vertex="1" connectable="0">
          <mxGeometry x="870" y="820" width="490" height="175" as="geometry" />
        </mxCell>
        <mxCell id="7Etn7J5GAcvlB-kk5nT8-47" value="&lt;font color=&quot;#ffff66&quot;&gt;List&amp;lt;Job&amp;gt;&amp;nbsp;&lt;/font&gt;AddDate(string srtHtml)" style="text;html=1;align=center;verticalAlign=middle;resizable=0;points=[];autosize=1;strokeColor=none;fillColor=none;fontColor=#99FFCC;fontStyle=1;fontFamily=Times New Roman;fontSize=32;" parent="7Etn7J5GAcvlB-kk5nT8-49" vertex="1">
          <mxGeometry x="10" width="480" height="50" as="geometry" />
        </mxCell>
        <mxCell id="7Etn7J5GAcvlB-kk5nT8-48" value="Esta función recibe el html y retorna una lista de objetos Job con las propiedad CalendarDate llena." style="rounded=1;whiteSpace=wrap;html=1;fontFamily=Times New Roman;fontSize=15;fontStyle=1" parent="7Etn7J5GAcvlB-kk5nT8-49" vertex="1">
          <mxGeometry y="45" width="490" height="130" as="geometry" />
        </mxCell>
        <mxCell id="7Etn7J5GAcvlB-kk5nT8-50" value="" style="group" parent="1" vertex="1" connectable="0">
          <mxGeometry x="870" y="595" width="500" height="180" as="geometry" />
        </mxCell>
        <mxCell id="7Etn7J5GAcvlB-kk5nT8-45" value="&lt;font color=&quot;#ffff66&quot;&gt;List&amp;lt;Job&amp;gt;&amp;nbsp;&lt;/font&gt;AddLinks(string srtHtml)" style="text;html=1;align=center;verticalAlign=middle;resizable=0;points=[];autosize=1;strokeColor=none;fillColor=none;fontColor=#99FFCC;fontStyle=1;fontFamily=Times New Roman;fontSize=32;" parent="7Etn7J5GAcvlB-kk5nT8-50" vertex="1">
          <mxGeometry x="10" width="490" height="50" as="geometry" />
        </mxCell>
        <mxCell id="7Etn7J5GAcvlB-kk5nT8-46" value="Esta función recibe el html y retorna una lista de objetos Job con las propiedad Link llena." style="rounded=1;whiteSpace=wrap;html=1;fontFamily=Times New Roman;fontSize=15;fontStyle=1" parent="7Etn7J5GAcvlB-kk5nT8-50" vertex="1">
          <mxGeometry y="50" width="490" height="130" as="geometry" />
        </mxCell>
        <mxCell id="7Etn7J5GAcvlB-kk5nT8-51" value="" style="group" parent="1" vertex="1" connectable="0">
          <mxGeometry x="1470" y="690" width="490" height="180" as="geometry" />
        </mxCell>
        <mxCell id="7Etn7J5GAcvlB-kk5nT8-43" value="&lt;font color=&quot;#ffff66&quot;&gt;List&amp;lt;Job&amp;gt; &lt;/font&gt;ListJobs(string srtHtml)" style="text;html=1;align=center;verticalAlign=middle;resizable=0;points=[];autosize=1;strokeColor=none;fillColor=none;fontColor=#99FFCC;fontStyle=1;fontFamily=Times New Roman;fontSize=32;" parent="7Etn7J5GAcvlB-kk5nT8-51" vertex="1">
          <mxGeometry x="10" width="470" height="50" as="geometry" />
        </mxCell>
        <mxCell id="7Etn7J5GAcvlB-kk5nT8-44" value="Esta función recibe el html y retorna una lista de objetos Job con las propiedades Link y CalendarDate llenas." style="rounded=1;whiteSpace=wrap;html=1;fontFamily=Times New Roman;fontSize=15;fontStyle=1" parent="7Etn7J5GAcvlB-kk5nT8-51" vertex="1">
          <mxGeometry y="50" width="490" height="130" as="geometry" />
        </mxCell>
        <mxCell id="7Etn7J5GAcvlB-kk5nT8-52" value="" style="endArrow=classic;html=1;rounded=0;entryX=1;entryY=0.5;entryDx=0;entryDy=0;exitX=0;exitY=0.5;exitDx=0;exitDy=0;" parent="1" source="7Etn7J5GAcvlB-kk5nT8-44" target="7Etn7J5GAcvlB-kk5nT8-46" edge="1">
          <mxGeometry width="50" height="50" relative="1" as="geometry">
            <mxPoint x="1390" y="830" as="sourcePoint" />
            <mxPoint x="1440" y="780" as="targetPoint" />
          </mxGeometry>
        </mxCell>
        <mxCell id="7Etn7J5GAcvlB-kk5nT8-54" value="&lt;font color=&quot;#99ffcc&quot; size=&quot;1&quot; face=&quot;Times New Roman&quot;&gt;&lt;b style=&quot;font-size: 18px;&quot;&gt;2&lt;/b&gt;&lt;/font&gt;" style="edgeLabel;html=1;align=center;verticalAlign=middle;resizable=0;points=[];" parent="7Etn7J5GAcvlB-kk5nT8-52" vertex="1" connectable="0">
          <mxGeometry x="0.2631" y="1" relative="1" as="geometry">
            <mxPoint y="-1" as="offset" />
          </mxGeometry>
        </mxCell>
        <mxCell id="7Etn7J5GAcvlB-kk5nT8-53" value="" style="endArrow=classic;html=1;rounded=0;entryX=1;entryY=0.5;entryDx=0;entryDy=0;exitX=0;exitY=0.5;exitDx=0;exitDy=0;" parent="1" source="7Etn7J5GAcvlB-kk5nT8-44" target="7Etn7J5GAcvlB-kk5nT8-48" edge="1">
          <mxGeometry width="50" height="50" relative="1" as="geometry">
            <mxPoint x="1490" y="770" as="sourcePoint" />
            <mxPoint x="1540" y="720" as="targetPoint" />
          </mxGeometry>
        </mxCell>
        <mxCell id="7Etn7J5GAcvlB-kk5nT8-55" value="&lt;font face=&quot;Times New Roman&quot; color=&quot;#99ffcc&quot; style=&quot;font-size: 18px;&quot;&gt;&lt;b&gt;3&lt;/b&gt;&lt;/font&gt;" style="edgeLabel;html=1;align=center;verticalAlign=middle;resizable=0;points=[];rotation=-35;" parent="7Etn7J5GAcvlB-kk5nT8-53" vertex="1" connectable="0">
          <mxGeometry x="0.1011" y="1" relative="1" as="geometry">
            <mxPoint as="offset" />
          </mxGeometry>
        </mxCell>
        <mxCell id="7Etn7J5GAcvlB-kk5nT8-56" value="" style="curved=1;endArrow=classic;html=1;rounded=0;exitX=0;exitY=0.25;exitDx=0;exitDy=0;entryX=0.5;entryY=1;entryDx=0;entryDy=0;" parent="1" source="7Etn7J5GAcvlB-kk5nT8-44" target="7Etn7J5GAcvlB-kk5nT8-35" edge="1">
          <mxGeometry width="50" height="50" relative="1" as="geometry">
            <mxPoint x="1390" y="710" as="sourcePoint" />
            <mxPoint x="1440" y="660" as="targetPoint" />
            <Array as="points">
              <mxPoint x="1410" y="720" />
              <mxPoint x="1440" y="670" />
              <mxPoint x="1530" y="670" />
            </Array>
          </mxGeometry>
        </mxCell>
        <mxCell id="7Etn7J5GAcvlB-kk5nT8-57" value="&lt;font color=&quot;#99ffcc&quot; face=&quot;Times New Roman&quot; style=&quot;font-size: 18px;&quot;&gt;&lt;b&gt;1&lt;/b&gt;&lt;/font&gt;" style="edgeLabel;html=1;align=center;verticalAlign=middle;resizable=0;points=[];" parent="7Etn7J5GAcvlB-kk5nT8-56" vertex="1" connectable="0">
          <mxGeometry x="0.1439" y="-3" relative="1" as="geometry">
            <mxPoint as="offset" />
          </mxGeometry>
        </mxCell>
        <mxCell id="70gyKygHLyewn4vN5dPq-5" value="" style="group" vertex="1" connectable="0" parent="1">
          <mxGeometry x="2010" y="490" width="330.00378325123165" height="100" as="geometry" />
        </mxCell>
        <mxCell id="70gyKygHLyewn4vN5dPq-2" value="public class JobSearch()" style="text;html=1;align=center;verticalAlign=middle;resizable=0;points=[];autosize=1;strokeColor=none;fillColor=none;fontColor=#FFFF66;fontStyle=1;fontFamily=Times New Roman;fontSize=32;container=0;" vertex="1" parent="70gyKygHLyewn4vN5dPq-5">
          <mxGeometry x="0.0037832512316526845" width="330" height="50" as="geometry" />
        </mxCell>
        <mxCell id="70gyKygHLyewn4vN5dPq-3" value="string UrlLink {get;set;}" style="rounded=1;whiteSpace=wrap;html=1;fontFamily=Times New Roman;fontSize=19;fontStyle=1;container=0;" vertex="1" parent="70gyKygHLyewn4vN5dPq-5">
          <mxGeometry y="50" width="210" height="50" as="geometry" />
        </mxCell>
        <mxCell id="70gyKygHLyewn4vN5dPq-6" value="&lt;div style=&quot;font-size: 18px;&quot;&gt;&lt;font color=&quot;#99ffcc&quot; style=&quot;font-size: 18px; font-weight: normal;&quot;&gt;Date&lt;/font&gt;&lt;font color=&quot;#ffffff&quot; style=&quot;font-size: 18px; font-weight: normal;&quot;&gt; current = GetDate.Now()&lt;/font&gt;&lt;/div&gt;&lt;div style=&quot;font-size: 18px;&quot;&gt;&lt;font color=&quot;#66ffff&quot; style=&quot;font-size: 18px; font-weight: normal;&quot;&gt;int&lt;/font&gt;&lt;font color=&quot;#ffffff&quot; style=&quot;font-size: 18px; font-weight: normal;&quot;&gt; timer = 5;&lt;/font&gt;&lt;/div&gt;&lt;div style=&quot;font-size: 18px;&quot;&gt;&lt;font color=&quot;#66ffff&quot; style=&quot;font-size: 18px; font-weight: normal;&quot;&gt;int&lt;/font&gt;&lt;font color=&quot;#ffffff&quot; style=&quot;font-size: 18px; font-weight: normal;&quot;&gt; n =&amp;nbsp;&lt;/font&gt;&lt;span style=&quot;color: rgb(255, 255, 255); font-weight: 400; background-color: initial;&quot;&gt;list&amp;lt;jobsearch&amp;gt;.Lenght&lt;/span&gt;&lt;/div&gt;&lt;div style=&quot;font-size: 18px;&quot;&gt;&lt;span style=&quot;font-weight: 400; background-color: initial;&quot;&gt;&lt;font color=&quot;#66ffff&quot;&gt;int&lt;/font&gt;&lt;/span&gt;&lt;span style=&quot;color: rgb(255, 255, 255); font-weight: 400; background-color: initial;&quot;&gt; i = n&lt;/span&gt;&lt;/div&gt;&lt;div style=&quot;font-size: 18px;&quot;&gt;&lt;font color=&quot;#66ffff&quot; style=&quot;font-size: 18px; font-weight: normal;&quot;&gt;bool&lt;/font&gt;&lt;font color=&quot;#ffffff&quot; style=&quot;font-size: 18px; font-weight: normal;&quot;&gt; firstRound = false;&lt;/font&gt;&lt;/div&gt;&lt;div style=&quot;font-size: 18px;&quot;&gt;&lt;font color=&quot;#ffffff&quot; style=&quot;font-size: 18px; font-weight: normal;&quot;&gt;&lt;br&gt;&lt;/font&gt;&lt;/div&gt;&lt;span style=&quot;font-weight: normal;&quot;&gt;&lt;font color=&quot;#cc99ff&quot;&gt;while&lt;/font&gt;&lt;font color=&quot;#ffffff&quot;&gt; i &amp;gt; 0{&lt;/font&gt;&lt;/span&gt;&lt;div&gt;&lt;div style=&quot;font-size: 18px;&quot;&gt;&lt;span style=&quot;font-weight: normal;&quot;&gt;&lt;font color=&quot;#ffffff&quot;&gt;&lt;span style=&quot;white-space: pre;&quot;&gt;&#x9;&lt;/span&gt;&amp;nbsp;&lt;/font&gt;&lt;font color=&quot;#cc99ff&quot;&gt;foreach&lt;/font&gt;&lt;font color=&quot;#ffffff&quot;&gt; a in&amp;nbsp;&lt;/font&gt;&lt;/span&gt;&lt;span style=&quot;color: rgb(255, 255, 255); font-weight: 400; background-color: initial;&quot;&gt;list&amp;lt;jobsearch&amp;gt;&lt;/span&gt;&lt;/div&gt;&lt;div style=&quot;font-size: 18px;&quot;&gt;&lt;span style=&quot;font-weight: normal;&quot;&gt;&lt;span style=&quot;color: rgb(255, 255, 255); white-space: pre;&quot;&gt;&#x9;&lt;span style=&quot;white-space: pre;&quot;&gt;&#x9;&lt;/span&gt;&lt;/span&gt;&lt;font color=&quot;#ffffff&quot;&gt;string document = GET:&lt;/font&gt;&lt;u style=&quot;&quot;&gt;https://trabajos.com&lt;/u&gt;&lt;br&gt;&lt;/span&gt;&lt;/div&gt;&lt;div style=&quot;font-size: 18px;&quot;&gt;&lt;span style=&quot;font-weight: normal;&quot;&gt;&lt;span style=&quot;color: rgb(255, 255, 255); white-space: pre;&quot;&gt;&#x9;&lt;span style=&quot;white-space: pre;&quot;&gt;&#x9;&lt;/span&gt;myList =&lt;span style=&quot;white-space: pre;&quot;&gt;&#x9;&lt;/span&gt;&lt;/span&gt;&lt;u&gt;guardar una lista sencilla de Job()&lt;/u&gt;&lt;br&gt;&lt;/span&gt;&lt;/div&gt;&lt;div style=&quot;font-size: 18px;&quot;&gt;&lt;span style=&quot;font-weight: normal;&quot;&gt;&lt;span style=&quot;text-decoration-line: underline; white-space: pre;&quot;&gt;&#x9;&lt;/span&gt;&lt;span style=&quot;text-decoration-line: underline; white-space: pre;&quot;&gt;&#x9;&lt;/span&gt;&lt;font color=&quot;#cc99ff&quot;&gt;foreach&lt;/font&gt;&lt;font color=&quot;#ffffff&quot;&gt; list&amp;lt;job&amp;gt;&lt;/font&gt;&lt;br&gt;&lt;/span&gt;&lt;/div&gt;&lt;div style=&quot;font-size: 18px;&quot;&gt;&lt;span style=&quot;font-weight: normal;&quot;&gt;&lt;span style=&quot;color: rgb(255, 255, 255); white-space: pre;&quot;&gt;&#x9;&lt;span style=&quot;white-space: pre;&quot;&gt;&#x9;&lt;span style=&quot;white-space: pre;&quot;&gt;&#x9;&lt;/span&gt;&lt;/span&gt;&lt;/span&gt;&lt;font color=&quot;#ffffff&quot;&gt;if (&lt;/font&gt;&lt;u style=&quot;&quot;&gt;validar que la fecha sea la de hoy&lt;/u&gt;&lt;font color=&quot;#ffffff&quot;&gt;)&lt;/font&gt;&lt;br&gt;&lt;/span&gt;&lt;/div&gt;&lt;div style=&quot;font-size: 18px;&quot;&gt;&lt;span style=&quot;font-weight: normal;&quot;&gt;&lt;span style=&quot;color: rgb(255, 255, 255); white-space: pre;&quot;&gt;&#x9;&lt;/span&gt;&lt;span style=&quot;color: rgb(255, 255, 255); white-space: pre;&quot;&gt;&#x9;&lt;span style=&quot;white-space: pre;&quot;&gt;&#x9;&lt;span style=&quot;white-space: pre;&quot;&gt;&#x9;&lt;/span&gt;&lt;/span&gt;&lt;/span&gt;&lt;font color=&quot;#66ffff&quot;&gt;Guardar en el log el trabajo&lt;/font&gt;&lt;br&gt;&lt;/span&gt;&lt;/div&gt;&lt;div style=&quot;font-size: 18px;&quot;&gt;&lt;span style=&quot;font-weight: normal;&quot;&gt;&lt;span style=&quot;color: rgb(255, 255, 255); white-space: pre;&quot;&gt;&#x9;&lt;/span&gt;&lt;span style=&quot;color: rgb(255, 255, 255); white-space: pre;&quot;&gt;&#x9;&lt;span style=&quot;white-space: pre;&quot;&gt;&#x9;&lt;span style=&quot;white-space: pre;&quot;&gt;&#x9;&lt;/span&gt;&lt;/span&gt;&lt;/span&gt;&lt;font color=&quot;#66ffff&quot;&gt;hacer sonar la pc como aviso&lt;/font&gt;&lt;br&gt;&lt;/span&gt;&lt;/div&gt;&lt;div style=&quot;font-size: 18px;&quot;&gt;&lt;span style=&quot;font-weight: normal;&quot;&gt;&lt;font color=&quot;#ffffff&quot;&gt;i-1;&lt;/font&gt;&lt;/span&gt;&lt;/div&gt;&lt;div style=&quot;font-size: 18px;&quot;&gt;&lt;span style=&quot;font-weight: normal;&quot;&gt;&lt;font color=&quot;#ffffff&quot;&gt;if i == 0 then sleep(timer) and i = n&lt;/font&gt;&lt;/span&gt;&lt;/div&gt;&lt;div style=&quot;font-size: 18px;&quot;&gt;&lt;span style=&quot;font-weight: normal;&quot;&gt;&lt;font color=&quot;#ffffff&quot;&gt;}&lt;/font&gt;&lt;/span&gt;&lt;/div&gt;&lt;/div&gt;" style="text;html=1;align=left;verticalAlign=middle;resizable=0;points=[];autosize=1;strokeColor=none;fillColor=none;fontColor=#FFFF66;fontStyle=1;fontFamily=Times New Roman;fontSize=18;container=0;" vertex="1" parent="1">
          <mxGeometry x="2060.0037832512317" y="645" width="410" height="380" as="geometry" />
        </mxCell>
      </root>
    </mxGraphModel>
  </diagram>
</mxfile>
